<?xml version="1.0" encoding="utf-8"?>
<!-- Generator: Adobe Illustrator 22.0.0, SVG Export Plug-In . SVG Version: 6.00 Build 0)  -->
<svg version="1.1" id="Layer_1" xmlns="http://www.w3.org/2000/svg" xmlns:xlink="http://www.w3.org/1999/xlink" x="0px" y="0px"
	 viewBox="0 0 702.9 146.9" style="enable-background:new 0 0 702.9 146.9;" xml:space="preserve">
<style type="text/css">
	.st0{fill:#2E2E2F;}
</style>
<g>
	<path class="st0" d="M23.2,20.4h5.5v103.4h-5.5V20.4z M84.7,69.7v5H37v-5H84.7z M93,20.4h5.5v103.4H93V20.4z"/>
	<path class="st0" d="M202.6,123.8H197l-39.8-98.2l-40,98.2h-5.7l42.7-105.2h5.7L202.6,123.8z M175.5,87.9v5h-36.8v-5H175.5z"/>
	<path class="st0" d="M215,100.7c4.1,14.2,15.7,21,28.7,21c14.6,0,27.4-8.5,27.4-24c0-12.5-7.2-19.7-19.7-22.7l-17.2-4
		c-15-3.4-22.2-14.8-22.2-26.1c0-18.2,15.3-27.2,30.7-27.2c13.8,0,27.7,7,32.4,22.6l-5.2,1.8c-4-13.2-15.2-19.4-27.2-19.4
		c-13.2,0-25.2,7.4-25.2,22.2c0,9,5.4,17.8,17.9,20.7l17.6,4.3c14.6,3.6,23.6,12.7,23.6,27.7c0,18.1-14.9,29.1-32.8,29.1
		c-14.8,0-29.1-7.4-34.1-24L215,100.7z"/>
	<path class="st0" d="M284.5,20.4h73.1v5h-73.1V20.4z M318.3,33.7h5.5v90.2h-5.5V33.7z"/>
	<path class="st0" d="M373.1,20.4h5.5v103.4h-5.5V20.4z"/>
	<path class="st0" d="M479.9,123.8h-5.5L401.4,20.4h6.5l66.6,94v-94h5.5V123.8z M407,42.1v81.8h-5.5V34.2L407,42.1z"/>
	<path class="st0" d="M551.6,125.4c-30.1,0-54.5-24.4-54.5-54.5s24.4-54.5,54.5-54.5c15,0,28.5,6.2,38.3,16.1l-3.9,3.6
		c-9-9.1-20.8-14.8-34.5-14.8c-27,0-48.9,22.1-48.9,49.5c0,27.4,21.9,49.5,48.9,49.5c23.3,0,42.5-16.8,47.8-38.5h5.5
		C599.8,106.8,577.8,125.4,551.6,125.4z M605.9,68.5c0,0,0.1,1.5,0.1,2.3c0,1.4,0,1-0.1,2.6h-54.3v-5H605.9z"/>
	<path class="st0" d="M623.1,100.7c4.1,14.2,15.7,21,28.7,21c14.6,0,27.4-8.5,27.4-24c0-12.5-7.2-19.7-19.7-22.7l-17.2-4
		c-15-3.4-22.2-14.8-22.2-26.1c0-18.2,15.3-27.2,30.7-27.2c13.8,0,27.7,7,32.4,22.6l-5.2,1.8c-4-13.2-15.2-19.4-27.2-19.4
		c-13.2,0-25.2,7.4-25.2,22.2c0,9,5.4,17.8,17.9,20.7l17.6,4.3c14.6,3.6,23.6,12.7,23.6,27.7c0,18.1-14.9,29.1-32.8,29.1
		c-14.8,0-29.1-7.4-34.1-24L623.1,100.7z"/>
</g>
</svg>
