<?xml version="1.0" encoding="UTF-8"?>
<svg width="20px" height="20px" viewBox="0 0 20 20" version="1.1" xmlns="http://www.w3.org/2000/svg" xmlns:xlink="http://www.w3.org/1999/xlink">
    <!-- Generator: Sketch 49.3 (51167) - http://www.bohemiancoding.com/sketch -->
    <title>Page 1</title>
    <desc>Created with Sketch.</desc>
    <defs>
        <polygon id="path-1" points="0 0 20 0 20 20 0 20"></polygon>
    </defs>
    <g id="Desktop" stroke="none" stroke-width="1" fill="none" fill-rule="evenodd">
        <g id="Page-1">
            <mask id="mask-2" fill="white">
                <use xlink:href="#path-1"></use>
            </mask>
            <g id="Clip-2"></g>
            <path d="M2.33151347,0 C1.04313971,0 0,1.04313971 0,2.33151347 C0,3.61988723 1.04313971,4.66257943 2.33151347,4.66257943 C3.61988723,4.66257943 4.66257943,3.61988723 4.66257943,2.33151347 C4.66257943,1.04313971 3.61988723,0 2.33151347,0 Z M19.8899132,10.7607626 C19.5829231,8.23324085 18.4301441,6.66293744 15.0187953,6.66293744 C13.0184373,6.66293744 11.668755,7.39908708 11.1044482,8.4663922 L11.0431397,8.4663922 L11.0431397,6.66293744 L7.32480086,6.66293744 L7.32480086,9.22715475 L7.32480086,20 L11.2149825,20 L11.2149825,13.3871834 C11.2149825,11.6441421 11.5582207,9.9637519 13.6941735,9.9637519 C15.8404189,9.9637519 15.9997315,11.9511322 15.9997315,13.5093529 L15.9997315,20 L20,20 L20,12.6751991 C20,11.9878278 19.9628569,11.3501298 19.8899132,10.7607626 Z M0,10.2085384 L0,20 L4.66257943,20 L4.66257943,9.41108028 L4.66257943,6.66293744 L0,6.66293744 L0,10.2085384 Z" id="Fill-1" fill="#2D2D2D" mask="url(#mask-2)"></path>
        </g>
    </g>
</svg>