<?xml version="1.0" encoding="UTF-8"?>
<svg width="103px" height="15px" viewBox="0 0 103 15" version="1.1" xmlns="http://www.w3.org/2000/svg" xmlns:xlink="http://www.w3.org/1999/xlink">
    <!-- Generator: Sketch 49.2 (51160) - http://www.bohemiancoding.com/sketch -->
    <title>Group 11</title>
    <desc>Created with Sketch.</desc>
    <defs>
        <polygon id="path-1" points="0 0.101764706 14.8965 0.101764706 14.8965 14.7057941 0 14.7057941"></polygon>
    </defs>
    <g id="Desktop" stroke="none" stroke-width="1" fill="none" fill-rule="evenodd">
        <g id="Job-Copy-7" transform="translate(-14.000000, -169.000000)">
            <g id="Group-11" transform="translate(14.000000, 169.000000)">
                <path d="M4.6204753,5.19314293 L4.6204753,4.06908505 C4.6204753,3.529913 5.00205614,3.40059938 5.27853488,3.40059938 L6.95916416,3.40059938 L6.95916416,1 L4.64490986,1 C2.07091283,1 1.49419022,2.77751437 1.49419022,3.93225684 L1.49419022,5.19314293 L0,5.19314293 L0,6.88705746 L0,7.99639926 L1.51025678,7.99639926 L1.51025678,15 L4.50700521,15 L4.50700521,7.99639926 L6.72385597,7.99639926 L6.8212595,6.89488516 L7,5.19314293 L4.6204753,5.19314293 Z" id="Fill-1" fill="#333333"></path>
                <path d="M57.6320594,0 C56.7301978,0 56,0.730197798 56,1.63205943 C56,2.53392106 56.7301978,3.2638056 57.6320594,3.2638056 C58.5339211,3.2638056 59.2638056,2.53392106 59.2638056,1.63205943 C59.2638056,0.730197798 58.5339211,0 57.6320594,0 Z M69.9229392,7.53253379 C69.7080462,5.76326859 68.9011009,4.66405621 66.5131567,4.66405621 C65.1129061,4.66405621 64.1681285,5.17936096 63.7731138,5.92647454 L63.7301978,5.92647454 L63.7301978,4.66405621 L61.1273606,4.66405621 L61.1273606,6.45900832 L61.1273606,14 L63.8504878,14 L63.8504878,9.37102837 C63.8504878,8.15089949 64.0907545,6.97462633 65.5859214,6.97462633 C67.0882932,6.97462633 67.199812,8.36579254 67.199812,9.45654703 L67.199812,14 L70,14 L70,8.8726394 C70,8.39147946 69.9739998,7.94509084 69.9229392,7.53253379 Z M56,7.14597691 L56,14 L59.2638056,14 L59.2638056,6.5877562 L59.2638056,4.66405621 L56,4.66405621 L56,7.14597691 Z" id="Fill-3" fill="#333333"></path>
                <path d="M88.897324,3.65203298 C88.9170163,3.45110751 88.8421259,3.25231955 88.695627,3.11704602 L87.201697,1.27512743 L87.201697,1 L91.8404289,1 L95.4256224,9.04770629 L98.5778834,1 L103,1 L103,1.27512743 L101.722685,2.52862143 C101.612587,2.61473234 101.557986,2.75580767 101.580662,2.89535621 L101.580662,12.1046438 C101.557986,12.2444977 101.612587,12.385573 101.722685,12.4713786 L102.970163,13.7248726 L102.970163,14 L96.6957762,14 L96.6957762,13.7248726 L97.9880093,12.4408428 C98.1148159,12.3110657 98.1148159,12.2725906 98.1148159,12.074108 L98.1148159,4.63039955 L94.5221632,13.9694642 L94.0364196,13.9694642 L89.8535944,4.63039955 L89.8535944,10.8896249 C89.8183869,11.152538 89.9040186,11.4175886 90.0848298,11.6078266 L91.7655385,13.6943368 L91.7655385,13.9694642 L87,13.9694642 L87,13.6943368 L88.6807086,11.6078266 C88.8603263,11.4172833 88.9408858,11.1507058 88.897324,10.8896249 L88.897324,3.65203298 Z" id="Fill-7" fill="#333333"></path>
                <g id="Page-1" transform="translate(24.000000, 0.000000)">
                    <g id="Group-3" transform="translate(0.000000, 0.192441)">
                        <mask id="mask-2" fill="white">
                            <use xlink:href="#path-1"></use>
                        </mask>
                        <g id="Clip-2"></g>
                        <path d="M11.376,0.101676471 L3.5205,0.101676471 C1.5876,0.101676471 0,1.64991176 0,3.55314706 L0,11.2546176 C0,13.1493235 1.5876,14.7057941 3.5205,14.7057941 L11.376,14.7057941 C13.3173,14.7057941 14.8965,13.1493235 14.8965,11.2546176 L14.8965,3.55314706 C14.8965,1.64991176 13.3173,0.101676471 11.376,0.101676471" id="Fill-1" fill="#2D2D2D" mask="url(#mask-2)"></path>
                    </g>
                    <path d="M3.52062,1.15708824 L11.37612,1.15708824 C12.83202,1.15708824 14.01642,2.31797059 14.01642,3.74561765 L14.01642,11.4470882 C14.01642,12.8741471 12.83202,14.0353235 11.37612,14.0353235 L3.52062,14.0353235 C2.06442,14.0353235 0.88002,12.8741471 0.88002,11.4470882 L0.88002,3.74561765 C0.88002,2.31797059 2.06442,1.15708824 3.52062,1.15708824" id="Fill-4" fill="#2D2D2D"></path>
                    <path d="M12.24771,7.59220588 C12.24771,4.99544118 10.10091,2.88279412 7.44411,2.88279412 C4.79541,2.88279412 2.64051,4.99544118 2.64051,7.59220588 C2.64051,10.1969118 4.79541,12.3019118 7.44411,12.3019118 C10.10091,12.3019118 12.24771,10.1969118 12.24771,7.59220588" id="Fill-6" fill="#FFFFFF"></path>
                    <path d="M3.64383,7.59220588 C3.64383,5.53573529 5.34663,3.85838235 7.44393,3.85838235 C9.54993,3.85838235 11.25243,5.53573529 11.25243,7.59220588 C11.25243,9.65661765 9.54993,11.3260294 7.44393,11.3260294 C5.34663,11.3260294 3.64383,9.65661765 3.64383,7.59220588" id="Fill-8" fill="#2D2D2D"></path>
                    <path d="M12.15735,2.24564706 C11.72955,2.24564706 11.38425,2.58417647 11.38425,3.00358824 C11.38425,3.423 11.72955,3.76152941 12.15735,3.76152941 C12.58515,3.76152941 12.93075,3.423 12.93075,3.00358824 C12.93075,2.58417647 12.58515,2.24564706 12.15735,2.24564706" id="Fill-10" fill="#FFFFFF"></path>
                </g>
            </g>
        </g>
    </g>
</svg>