<?xml version="1.0" encoding="UTF-8"?>
<svg width="23px" height="19px" viewBox="0 0 23 19" version="1.1" xmlns="http://www.w3.org/2000/svg" xmlns:xlink="http://www.w3.org/1999/xlink">
    <!-- Generator: Sketch 49.3 (51167) - http://www.bohemiancoding.com/sketch -->
    <title>Page 1</title>
    <desc>Created with Sketch.</desc>
    <defs>
        <polygon id="path-1" points="0 0 23 0 23 19 0 19"></polygon>
    </defs>
    <g id="Desktop" stroke="none" stroke-width="1" fill="none" fill-rule="evenodd">
        <g id="Page-1">
            <mask id="mask-2" fill="white">
                <use xlink:href="#path-1"></use>
            </mask>
            <g id="Clip-2"></g>
            <path d="M23,2.254086 C22.163868,2.62804441 21.2540398,2.88549316 20.2937163,3.01421754 C21.2786052,2.40911901 22.0264839,1.48126994 22.3767677,0.347649779 C21.4660298,0.90154044 20.443383,1.30086789 19.3706956,1.51979329 C18.5213711,0.580199293 17.2876441,0 15.9156233,0 C13.3212484,0 11.2004391,2.15120045 11.2004391,4.79145959 C11.2004391,5.17810251 11.2632172,5.53890661 11.3378231,5.88702619 C7.40918531,5.69346982 3.92863783,3.7870336 1.60857612,0.875701605 C1.20961649,1.59730979 0.960323582,2.40911901 0.960323582,3.28482061 C0.960323582,4.95917711 1.80828339,6.42776253 3.05520283,7.2780951 C2.28230384,7.26541058 1.55853557,7.04601538 0.923020629,6.68521129 L0.923020629,6.74957347 C0.923020629,7.36782632 1.0353844,7.9348713 1.24691944,8.47560765 C1.82102099,9.98318621 3.13071857,11.1163366 4.71518424,11.4386173 C4.30257719,11.5546572 3.90361756,11.6185496 3.46735497,11.6185496 C3.16802152,11.6185496 2.86868807,11.5800262 2.58118238,11.515664 C3.19304179,13.4221002 4.92671928,14.8131692 6.9852054,14.8648468 C5.36298186,16.1530302 3.34270852,16.9131617 1.13501058,16.9131617 C0.747878716,16.9131617 0.386676952,16.8868531 0,16.8483297 C2.09533416,18.2013451 4.57734528,19 7.23449831,19 C14.6059258,19 19.1587057,13.7312267 20.342847,8.25668224 C20.5557468,7.2780951 20.654918,6.31172267 20.654918,5.35850456 L20.654918,4.74025171 C21.565656,4.05763667 22.3767677,3.20730411 23,2.254086" id="Fill-1" fill="#3B3B3B" mask="url(#mask-2)"></path>
        </g>
    </g>
</svg>